<svg id="Layer_1" data-name="Layer 1" xmlns="http://www.w3.org/2000/svg" viewBox="0 0 938.96 274.01"><defs><style>.cls-1{fill:#fff;}</style></defs><title>mosey_logo</title><path class="cls-1" d="M1377.43,957.25h29.44l29.87,113,29-113h45.13v148.28h-28.56V985.81L1452,1105.53h-31l-30.3-119.72v119.72h-28.57V973.17C1362.17,964.66,1368.93,957.25,1377.43,957.25Z" transform="translate(-1030.52 -876.66)"/><path class="cls-1" d="M1630,1048.4c0,39.68-17.66,59.74-52.55,59.74s-52.33-20.06-52.33-59.74c0-40.13,17.44-60,52.33-60S1630,1008.27,1630,1048.4Zm-75.45,0c.22,22.45,7.85,33.79,22.68,33.79s22.24-11.77,22.46-34.67c0-22.46-7.41-33.58-22.24-33.58C1562.13,1013.94,1554.5,1025.5,1554.5,1048.4Z" transform="translate(-1030.52 -876.66)"/><path class="cls-1" d="M1694.28,1084.59c12.21,0,18.32-3.49,18.32-10.9,0-5.89-10-10.68-29.87-14.17-25.51-4.58-38.6-15.92-38.81-34,0-24.86,19.62-36.63,46-37.07q22.24,0,35.33,9.81,12.75,10.14,13.74,28.13h-18.32c-6.76-.22-11.12-2.61-12.86-7.19-2-5-7.86-7.85-17.45-7.85-11.34,0-17,3-17,8.94s7.41,10.46,22.46,13.3c19.63,3.92,32.49,8.94,38.81,14.83a28.58,28.58,0,0,1,8.07,20.49c0,28.35-22.24,38.82-52.77,38.82-16.13,0-28.34-3.49-36.19-10.25-8.73-6.54-13.09-16.57-13.09-29.88h29.66C1671,1080.23,1680.11,1084.59,1694.28,1084.59Z" transform="translate(-1030.52 -876.66)"/><path class="cls-1" d="M1806.8,1108.14c-34.89-1.09-52.33-21.37-52.33-60.62s17.66-58.87,52.77-59.09c36.63,0,53.86,22.46,51.68,67.6h-74.58c1.1,17.66,8.73,26.6,22.9,26.6,6.76,0,13.08-2.83,18.75-8.29a12.72,12.72,0,0,1,9.81-4.14h21.37C1850.85,1094.62,1835.15,1108.14,1806.8,1108.14Zm-22-72.83h43.39c-1.74-15.26-8.94-23.11-21.37-23.11S1787,1020.05,1784.78,1035.31Z" transform="translate(-1030.52 -876.66)"/><path class="cls-1" d="M1881.82,1126c15.92,0,21.59-7.85,17-23.11l-39.25-112.74h32.93l22.9,80,20-69.78c1.75-6.76,6.33-10.25,13.74-10.25h20.28l-45.57,135c-7,19-14,25.51-37.94,25.51-7.42,0-11.34-.21-12.22-.87V1126Z" transform="translate(-1030.52 -876.66)"/><path class="cls-1" d="M1139.71,1027.62a21.69,21.69,0,0,1-12.6-4,3.24,3.24,0,1,1,3.74-5.28,15.68,15.68,0,0,0,18.75-.79,3.23,3.23,0,0,1,4.17,4.94A21.85,21.85,0,0,1,1139.71,1027.62Z" transform="translate(-1030.52 -876.66)"/><path class="cls-1" d="M1180,1027.62a21.8,21.8,0,0,1-14-5.13,3.23,3.23,0,1,1,4.17-4.94,15.68,15.68,0,0,0,18.75.79,3.23,3.23,0,0,1,3.73,5.28A21.64,21.64,0,0,1,1180,1027.62Z" transform="translate(-1030.52 -876.66)"/><path class="cls-1" d="M1159.87,1068.5a27.59,27.59,0,0,1-20.49-9.18,3.23,3.23,0,1,1,4.81-4.31,21,21,0,0,0,31.37,0,3.23,3.23,0,1,1,4.81,4.31A27.62,27.62,0,0,1,1159.87,1068.5Z" transform="translate(-1030.52 -876.66)"/><path class="cls-1" d="M1122.51,1110.29c-2.24-3.42-6-7.41-6.27-11.71v0a7.81,7.81,0,0,1,.28-2.29c.68-1.92,2.61-3.57,4.89-4.9.37-.18.78-.41,1.19-.59-24.06,2.47-58.33,9.06-70.35,32.39-4.62,8.87-6.92,17.89-8.42,27,7.05-1.64,14.13-3.16,21.31-4.3a192.46,192.46,0,0,1,19.9-2.15c7.41-.5,15-1,22.74-1.28l3.61-.13c9.62-.37,19.4-.55,29.19-.37-3.52-7.28-7.6-14.27-11.81-21.27C1126.72,1117.25,1124.62,1113.77,1122.51,1110.29Z" transform="translate(-1030.52 -876.66)"/><path class="cls-1" d="M1272.1,1123.15c-12-23.33-46.29-29.92-70.35-32.39.41.18.82.41,1.19.59,2.28,1.33,4.21,3,4.89,4.9a7.81,7.81,0,0,1,.28,2.29v0c-.23,4.3-4,8.29-6.27,11.71s-4.21,7-6.26,10.39c-4.21,7-8.29,14-11.8,21.27,9.78-.18,19.56,0,29.18.37l3.61.13c7.73.32,15.33.78,22.74,1.28a192.46,192.46,0,0,1,19.9,2.15c7.18,1.14,14.27,2.66,21.31,4.3C1279,1141,1276.72,1132,1272.1,1123.15Z" transform="translate(-1030.52 -876.66)"/><path class="cls-1" d="M1292.3,1102.68c8.17-46.43,6.77-105.77-3.86-143.57,20.45-13.48,8.65-33.8-.77-34s-16.16,5.05-20.08,9.4a254.47,254.47,0,0,0-199,0c-3.92-4.35-10.6-9.56-20.08-9.4s-21.23,20.49-.78,34c-10.62,37.8-12,97.14-3.85,143.57-18.36,8-17,26.68-.43,30.38,3.61-19.31,17.55-45.68,78-53.56l8.61-.88v-6.11a67.21,67.21,0,0,1-19.4-27.18h0c-19.49-8.39-24.79-81.35,16.87-87.37,0,0,19.75-25.79,71.85-20.59,16,1.6,15.62-7.81,15.62-7.81s8.71,17.87-10.66,28.4c13.3,4.69,40.27,49.35,6.66,88h0a60.65,60.65,0,0,1-16.69,25.75v6.88l8.6.88c60.74,7.91,74.54,34.45,78.09,53.79C1308,1137.26,1314.33,1112.32,1292.3,1102.68Zm-39.61-161.34-16.48,19.49h16.12v5.46h-23.57V961l16.38-19.44h-12.92a3.25,3.25,0,0,1-3.2-3.2V936.1h23.67Z" transform="translate(-1030.52 -876.66)"/><path class="cls-1" d="M1244.79,879.43v-2.77h29v6.41l-20.17,23.86h19.73v6.69h-28.86v-6.47l20.06-23.81H1248.7A4,4,0,0,1,1244.79,879.43Z" transform="translate(-1030.52 -876.66)"/><path class="cls-1" d="M1219,1010.52a58.3,58.3,0,0,0-.75-7.29,48,48,0,0,0-1.7-7.28,40.06,40.06,0,0,0-3-7,37.34,37.34,0,0,0-4.33-6.43,44,44,0,0,0-11.77-9.8l-3.33-2-2.64,3.26a37.4,37.4,0,0,1-2.93,3.24,30.76,30.76,0,0,1-3.45,2.77,35.81,35.81,0,0,1-8.17,4.06,65.27,65.27,0,0,1-18.85,3.2,94.11,94.11,0,0,1-29.17-3.72,41.89,41.89,0,0,1-8.61-3.41l-3.49-2-2.52,3.38-1.66,2.23c-.68.92-1.33,1.89-1.93,2.88a48,48,0,0,0-3.17,6.12,45.59,45.59,0,0,0-2.25,6.41,56,56,0,0,0-1.44,6.55c-.41,2.19-.59,4.38-.82,6.58s-.27,4.53-.21,6.56c0,1.1,0,2,0,3.27l.22,3.29c.27,2.19.5,4.38,1,6.52s1,4.27,1.54,6.38,1.34,4.15,2.18,6.16a61.94,61.94,0,0,0,2.78,5.88c1,1.93,2.14,3.76,3.28,5.58s2.45,3.55,3.83,5.19a60.61,60.61,0,0,0,4.29,4.76,51.87,51.87,0,0,0,4.72,4.29c1.1.9,2.23,1.73,3.38,2.54v-.46c-.93-.91-1.85-1.84-2.7-2.81-1.37-1.56-2.72-3.15-4-4.81a57,57,0,0,1-3.5-5.11c-1.1-1.74-2.08-3.54-3.05-5.34s-1.79-3.68-2.52-5.58a60.13,60.13,0,0,1-2-5.75c-.62-1.93-1.08-3.9-1.53-5.86s-.74-4-.91-6-.3-4-.38-6l0-3c0-.82.1-2,.15-3,.07-2.16.35-4,.55-6s.62-3.94,1.1-5.86a55.27,55.27,0,0,1,3.77-11,37.41,37.41,0,0,1,2.8-4.94c.39-.61.83-1.18,1.27-1.76a58.21,58.21,0,0,0,7,2.79,82.37,82.37,0,0,0,10.57,2.71,104.24,104.24,0,0,0,21.62,1.87,72.55,72.55,0,0,0,11-1,62.1,62.1,0,0,0,10.86-2.85,45,45,0,0,0,10.27-5.28,42,42,0,0,0,4.57-3.77l1.21-1.28a31.62,31.62,0,0,1,12.6,16,40.72,40.72,0,0,1,1.83,6.08,51.93,51.93,0,0,1,1.06,6.41c.29,2.15.36,4.44.45,6.55,0,2.33,0,4.61,0,6.76s-.2,4.45-.47,6.66-.58,4.42-1,6.63a80,80,0,0,1-3.59,12.93,56.47,56.47,0,0,1-2.69,6.19,57.26,57.26,0,0,1-3.31,5.92c-1.22,1.92-2.58,3.74-4,5.54l-2.25,2.61-.57.59v.51l1-.69,2.67-2.25a53,53,0,0,0,4.87-5.07,60.06,60.06,0,0,0,4.23-5.67,57.64,57.64,0,0,0,3.54-6.15,71.21,71.21,0,0,0,2.91-6.5c.89-2.21,1.6-4.48,2.28-6.77s1.2-4.61,1.63-7,.81-4.68,1.11-7.08.45-4.78.54-7.06C1219.08,1015.3,1219.15,1013,1219,1010.52Z" transform="translate(-1030.52 -876.66)"/></svg>